<svg width="77" height="71" viewBox="0 0 77 71" fill="none" xmlns="http://www.w3.org/2000/svg">
<g clip-path="url(#clip0_290_1434)" filter="url(#filter0_ii_290_1434)">
<path d="M32.9968 14.4373C34.2138 16.9694 35.264 19.5997 36.1865 22.23C36.6086 23.4274 37.2269 25.2137 38.0219 27.5692C38.3556 28.5114 38.5911 29.218 38.7285 29.6891C39.1996 31.0534 40.4461 34.6455 42.4777 40.4656C44.4995 46.2856 45.8441 50.2017 46.5017 52.2333C47.3457 54.8734 47.9837 56.7774 48.4057 57.9552C48.8277 59.1329 49.5049 60.7229 50.4177 62.7251C51.3403 64.7273 52.1941 66.1798 52.9989 67.0729C53.8037 67.9661 54.8637 68.7905 56.1789 69.5462C57.494 70.302 58.9564 70.6749 60.5562 70.6749H68.5256C73.0403 70.6749 76.6227 66.9748 76.6031 62.4503C76.6031 62.411 76.6031 62.3718 76.6031 62.3325V8.34239C76.6031 8.34239 76.6031 8.26387 76.6031 8.22461C76.6325 3.70008 73.06 -2.38419e-05 68.5354 -2.38419e-05H64.3152C62.0578 -2.38419e-05 60.1832 0.529965 58.7012 1.58994C57.2192 2.64992 56.4733 4.19081 56.4733 6.22243C56.4733 8.05776 57.0229 10.109 58.132 12.3664C59.241 14.6237 60.5856 16.9792 62.156 19.4329C63.7263 21.8865 65.2966 24.507 66.8572 27.314C68.4079 30.121 69.7426 33.4579 70.8517 37.3445C71.9607 41.2311 72.5104 45.2747 72.5104 49.4656C72.5104 54.5986 71.6369 57.17 69.8997 57.17C69.3304 57.17 68.771 56.8167 68.2017 56.11C67.6325 55.4034 67.024 54.2453 66.3664 52.6455C65.7088 51.0457 65.169 49.6422 64.7372 48.4448C64.3152 47.2475 63.6968 45.4612 62.9019 43.1057C62.5682 42.1635 62.3326 41.4568 62.1952 40.9857L55.5507 21.1995C54.1865 17.097 53.0775 13.9171 52.2334 11.6597C51.3893 9.40236 50.5747 7.38056 49.7994 5.61393C49.024 3.8473 48.2879 2.62047 47.6107 1.94327C46.9335 1.26606 46.2465 0.765515 45.5595 0.461262C44.8724 0.15701 43.9891 -2.38419e-05 42.9095 -2.38419e-05H32.3981C30.8768 -2.38419e-05 29.385 0.431819 28.0993 1.25624C26.6958 2.14937 25.1844 3.29768 24.9684 5.02505C24.7623 6.6739 24.8016 8.45035 25.0273 10.1483C25.1647 11.1886 25.1451 12.3467 25.5671 13.3282C26.1167 14.6041 26.9019 14.1919 27.3828 13.1712C28.0306 11.7579 27.1473 10.109 27.8245 8.69571C27.9423 8.44053 28.1386 8.19517 28.4134 8.12646C28.7471 8.03813 29.0906 8.24424 29.3458 8.46998C30.1015 9.11774 30.6413 9.98142 31.1418 10.8549C31.8092 12.0229 32.4275 13.2202 33.0164 14.4373H32.9968Z" fill="white"/>
<path d="M43.6157 56.326C42.3987 53.7939 41.3486 51.1636 40.426 48.5333C40.004 47.3359 39.3857 45.5496 38.5907 43.1941C38.257 42.2519 38.0214 41.5453 37.884 41.0742C37.4129 39.7099 36.1665 36.1178 34.1348 30.2977C32.113 24.4777 30.7684 20.5616 30.1109 18.53C29.2668 15.8899 28.6288 13.9859 28.2068 12.8081C27.7848 11.6304 27.1076 10.0404 26.1948 8.03822C25.2723 6.03604 24.4184 4.58348 23.6136 3.69035C22.8088 2.79722 21.7488 1.97279 20.4337 1.21707C19.1185 0.461346 17.6561 0.0883913 16.0563 0.0883913H8.08689C3.57218 0.0883913 -0.0101493 3.7885 0.00947992 8.31303C0.00947992 8.35228 0.00947992 8.39154 0.00947992 8.4308V62.4209C0.00947992 62.4209 0.00947992 62.4994 0.00947992 62.5387C-0.0101493 67.0534 3.56236 70.7633 8.08689 70.7633H12.3072C14.5645 70.7633 16.4391 70.2333 17.9211 69.1734C19.4031 68.1134 20.149 66.5725 20.149 64.5409C20.149 62.7055 19.5994 60.6543 18.4904 58.3969C17.3813 56.1396 16.0367 53.7841 14.4664 51.3304C12.896 48.8768 11.3257 46.2563 9.76519 43.4493C8.21448 40.6423 6.8797 37.3054 5.77065 33.4188C4.6616 29.5322 4.11198 25.4886 4.11198 21.2977C4.11198 16.1647 4.98548 13.5933 6.72266 13.5933C7.29191 13.5933 7.85134 13.9466 8.42059 14.6533C8.98984 15.3599 9.59834 16.518 10.2559 18.1178C10.9135 19.7176 11.4533 21.1211 11.8851 22.3185C12.3072 23.5158 12.9255 25.3021 13.7205 27.6576C14.0542 28.5998 14.2897 29.3065 14.4271 29.7776L21.0716 49.5638C22.4358 53.6663 23.5449 56.8462 24.3889 59.1036C25.233 61.3609 26.0476 63.3827 26.823 65.1494C27.5983 66.916 28.3344 68.1428 29.0116 68.82C29.6888 69.4973 30.3758 69.9978 31.0629 70.302C31.7499 70.6063 32.6332 70.7633 33.7128 70.7633H44.2242C45.7455 70.7633 47.2373 70.3315 48.523 69.5071C49.9265 68.6139 51.438 67.4656 51.6539 65.7383C51.86 64.0894 51.8207 62.313 51.595 60.615C51.4576 59.5747 51.4772 58.4166 51.0552 57.4351C50.5056 56.1592 49.7204 56.5714 49.2395 57.5921C48.5917 59.0054 49.4751 60.6543 48.7979 62.0676C48.6801 62.3228 48.4838 62.5681 48.209 62.6368C47.8753 62.7252 47.5318 62.5191 47.2766 62.2933C46.5209 61.6456 45.9811 60.7819 45.4805 59.9084C44.8131 58.7404 44.1948 57.5431 43.6059 56.326H43.6157Z" fill="white"/>
</g>
<defs>
<filter id="filter0_ii_290_1434" x="0" y="-5" width="79.6128" height="75.7633" filterUnits="userSpaceOnUse" color-interpolation-filters="sRGB">
<feFlood flood-opacity="0" result="BackgroundImageFix"/>
<feBlend mode="normal" in="SourceGraphic" in2="BackgroundImageFix" result="shape"/>
<feColorMatrix in="SourceAlpha" type="matrix" values="0 0 0 0 0 0 0 0 0 0 0 0 0 0 0 0 0 0 127 0" result="hardAlpha"/>
<feOffset dx="3" dy="-5"/>
<feGaussianBlur stdDeviation="3"/>
<feComposite in2="hardAlpha" operator="arithmetic" k2="-1" k3="1"/>
<feColorMatrix type="matrix" values="0 0 0 0 0 0 0 0 0 0 0 0 0 0 0 0 0 0 0.25 0"/>
<feBlend mode="normal" in2="shape" result="effect1_innerShadow_290_1434"/>
<feColorMatrix in="SourceAlpha" type="matrix" values="0 0 0 0 0 0 0 0 0 0 0 0 0 0 0 0 0 0 127 0" result="hardAlpha"/>
<feOffset dx="-2" dy="4"/>
<feComposite in2="hardAlpha" operator="arithmetic" k2="-1" k3="1"/>
<feColorMatrix type="matrix" values="0 0 0 0 1 0 0 0 0 1 0 0 0 0 1 0 0 0 0.25 0"/>
<feBlend mode="normal" in2="effect1_innerShadow_290_1434" result="effect2_innerShadow_290_1434"/>
</filter>
<clipPath id="clip0_290_1434">
<rect width="76.6128" height="70.7633" fill="white"/>
</clipPath>
</defs>
</svg>
