<svg width="22" height="22" viewBox="0 0 22 22" fill="none" xmlns="http://www.w3.org/2000/svg">
<path d="M10.6248 11.2888C14.115 11.2888 17.6965 13.5581 17.9284 18.117C17.9374 18.2927 17.8762 18.4648 17.7583 18.5955C17.6404 18.7261 17.4755 18.8046 17.2998 18.8138C15.4582 18.9077 6.92916 18.9652 3.95068 18.8138C3.7748 18.8049 3.60968 18.7264 3.49162 18.5958C3.37356 18.4651 3.31225 18.2929 3.32116 18.117C3.55314 13.559 7.13457 11.2888 10.6248 11.2888ZM10.6248 3.32025C9.74422 3.32025 8.8997 3.67006 8.27704 4.29273C7.65437 4.91539 7.30456 5.75991 7.30456 6.64049C7.30456 7.52107 7.65437 8.36559 8.27704 8.98825C8.8997 9.61092 9.74422 9.96073 10.6248 9.96073C11.5054 9.96073 12.3499 9.61092 12.9726 8.98825C13.5952 8.36559 13.945 7.52107 13.945 6.64049C13.945 5.75991 13.5952 4.91539 12.9726 4.29273C12.3499 3.67006 11.5054 3.32025 10.6248 3.32025Z" fill="white"/>
</svg>
