<svg width="22" height="22" viewBox="0 0 22 22" fill="none" xmlns="http://www.w3.org/2000/svg">
<rect opacity="0.01" width="21.2438" height="21.2438" fill="white"/>
<path d="M7.96621 2.65546H4.42559C3.44787 2.65546 2.65527 3.44805 2.65527 4.42577V7.96639C2.65527 8.94411 3.44787 9.73671 4.42559 9.73671H7.96621C8.94393 9.73671 9.73652 8.94411 9.73652 7.96639V4.42577C9.73652 3.44805 8.94393 2.65546 7.96621 2.65546Z" fill="white"/>
<path d="M16.8178 2.65546H13.2771C12.2994 2.65546 11.5068 3.44805 11.5068 4.42577V7.96639C11.5068 8.94411 12.2994 9.73671 13.2771 9.73671H16.8178C17.7955 9.73671 18.5881 8.94411 18.5881 7.96639V4.42577C18.5881 3.44805 17.7955 2.65546 16.8178 2.65546Z" fill="white"/>
<path d="M7.96621 11.507H4.42559C3.44787 11.507 2.65527 12.2996 2.65527 13.2773V16.818C2.65527 17.7957 3.44787 18.5883 4.42559 18.5883H7.96621C8.94393 18.5883 9.73652 17.7957 9.73652 16.818V13.2773C9.73652 12.2996 8.94393 11.507 7.96621 11.507Z" fill="white"/>
<path d="M16.8178 11.507H13.2771C12.2994 11.507 11.5068 12.2996 11.5068 13.2773V16.818C11.5068 17.7957 12.2994 18.5883 13.2771 18.5883H16.8178C17.7955 18.5883 18.5881 17.7957 18.5881 16.818V13.2773C18.5881 12.2996 17.7955 11.507 16.8178 11.507Z" fill="white"/>
</svg>
