<svg width="22" height="22" viewBox="0 0 22 22" fill="none" xmlns="http://www.w3.org/2000/svg">
<path d="M18.5881 16.818H4.42559V2.65548C4.42559 2.42072 4.33233 2.19558 4.16633 2.02958C4.00033 1.86358 3.77519 1.77032 3.54043 1.77032C3.30567 1.77032 3.08053 1.86358 2.91453 2.02958C2.74853 2.19558 2.65527 2.42072 2.65527 2.65548V17.7031C2.65527 17.9379 2.74853 18.163 2.91453 18.329C3.08053 18.495 3.30567 18.5883 3.54043 18.5883H18.5881C18.8228 18.5883 19.048 18.495 19.214 18.329C19.38 18.163 19.4732 17.9379 19.4732 17.7031C19.4732 17.4684 19.38 17.2432 19.214 17.0772C19.048 16.9112 18.8228 16.818 18.5881 16.818Z" fill="white"/>
<path d="M6.19629 9.73672V14.1625C6.19629 14.3973 6.28955 14.6224 6.45555 14.7884C6.62154 14.9544 6.84669 15.0477 7.08145 15.0477C7.3162 15.0477 7.54135 14.9544 7.70735 14.7884C7.87334 14.6224 7.9666 14.3973 7.9666 14.1625V9.73672C7.9666 9.50196 7.87334 9.27682 7.70735 9.11082C7.54135 8.94482 7.3162 8.85156 7.08145 8.85156C6.84669 8.85156 6.62154 8.94482 6.45555 9.11082C6.28955 9.27682 6.19629 9.50196 6.19629 9.73672Z" fill="white"/>
<path d="M9.73633 5.31094V14.1625C9.73633 14.3973 9.82959 14.6224 9.99558 14.7884C10.1616 14.9544 10.3867 15.0477 10.6215 15.0477C10.8562 15.0477 11.0814 14.9544 11.2474 14.7884C11.4134 14.6224 11.5066 14.3973 11.5066 14.1625V5.31094C11.5066 5.07618 11.4134 4.85104 11.2474 4.68504C11.0814 4.51904 10.8562 4.42578 10.6215 4.42578C10.3867 4.42578 10.1616 4.51904 9.99558 4.68504C9.82959 4.85104 9.73633 5.07618 9.73633 5.31094Z" fill="white"/>
<path d="M13.2773 7.08126V14.1625C13.2773 14.3973 13.3706 14.6224 13.5366 14.7884C13.7026 14.9544 13.9277 15.0477 14.1625 15.0477C14.3973 15.0477 14.6224 14.9544 14.7884 14.7884C14.9544 14.6224 15.0477 14.3973 15.0477 14.1625V7.08126C15.0477 6.8465 14.9544 6.62136 14.7884 6.45536C14.6224 6.28936 14.3973 6.19611 14.1625 6.19611C13.9277 6.19611 13.7026 6.28936 13.5366 6.45536C13.3706 6.62136 13.2773 6.8465 13.2773 7.08126Z" fill="white"/>
<path d="M16.8184 2.65548V14.1625C16.8184 14.3973 16.9116 14.6224 17.0776 14.7884C17.2436 14.9544 17.4688 15.0477 17.7035 15.0477C17.9383 15.0477 18.1634 14.9544 18.3294 14.7884C18.4954 14.6224 18.5887 14.3973 18.5887 14.1625V2.65548C18.5887 2.42072 18.4954 2.19558 18.3294 2.02958C18.1634 1.86358 17.9383 1.77032 17.7035 1.77032C17.4688 1.77032 17.2436 1.86358 17.0776 2.02958C16.9116 2.19558 16.8184 2.42072 16.8184 2.65548V2.65548Z" fill="white"/>
</svg>
