<svg width="22" height="22" viewBox="0 0 22 22" fill="none" xmlns="http://www.w3.org/2000/svg">
<path d="M1.92482 17.5261C1.65928 17.5704 1.4197 17.5075 1.20608 17.3376C0.99246 17.1676 0.885356 16.9431 0.884766 16.664V4.58069C0.884766 4.30039 0.99187 4.07556 1.20608 3.9062C1.42029 3.73684 1.65987 3.674 1.92482 3.71767L5.46545 4.29302C5.67199 4.32252 5.84548 4.42225 5.98592 4.5922C6.12637 4.76215 6.19629 4.95747 6.1957 5.17817V16.0656C6.1957 16.2869 6.12548 16.4825 5.98504 16.6525C5.84459 16.8224 5.6714 16.9218 5.46545 16.9508L1.92482 17.5261ZM8.85117 16.818C8.60038 16.818 8.3903 16.733 8.22094 16.5631C8.05158 16.3931 7.96661 16.183 7.96602 15.9328V5.31095C7.96602 5.06015 8.05099 4.85008 8.22094 4.68072C8.39089 4.51136 8.60097 4.42638 8.85117 4.42579H12.3918C12.6426 4.42579 12.853 4.51077 13.0229 4.68072C13.1929 4.85067 13.2775 5.06074 13.277 5.31095V15.9328C13.277 16.1836 13.192 16.394 13.022 16.5639C12.8521 16.7339 12.642 16.8186 12.3918 16.818H8.85117ZM15.7775 16.9508C15.571 16.9212 15.3978 16.8218 15.2579 16.6525C15.1181 16.4831 15.0479 16.2875 15.0473 16.0656V5.17817C15.0473 4.95688 15.1175 4.76156 15.2579 4.5922C15.3984 4.42284 15.5716 4.32311 15.7775 4.29302L19.3181 3.71767C19.5837 3.67341 19.8236 3.73625 20.0378 3.9062C20.252 4.07615 20.3588 4.30098 20.3582 4.58069V16.6631C20.3582 16.9434 20.2511 17.1685 20.0369 17.3384C19.8227 17.5084 19.5831 17.571 19.3181 17.5261L15.7775 16.9508Z" fill="white"/>
</svg>
