<svg width="23" height="23" viewBox="0 0 23 23" fill="none" xmlns="http://www.w3.org/2000/svg">
<path fill-rule="evenodd" clip-rule="evenodd" d="M15.4142 2.70667H8.00091C7.43915 2.70667 6.90041 2.92982 6.50319 3.32704C6.10597 3.72426 5.88281 4.26301 5.88281 4.82476V14.3562C5.88281 14.9179 6.10597 15.4567 6.50319 15.8539C6.90041 16.2511 7.43915 16.4743 8.00091 16.4743H15.4142C15.976 16.4743 16.5147 16.2511 16.912 15.8539C17.3092 15.4567 17.5323 14.9179 17.5323 14.3562V4.82476C17.5323 4.26301 17.3092 3.72426 16.912 3.32704C16.5147 2.92982 15.976 2.70667 15.4142 2.70667Z" fill="white" stroke="white" stroke-width="0.885156" stroke-linecap="round" stroke-linejoin="round"/>
<path d="M4.88274 5.82477C4.32099 5.82477 3.78224 6.04792 3.38502 6.44514C2.9878 6.84236 2.76465 7.38111 2.76465 7.94286V16.4152C2.76465 17.2579 3.09938 18.066 3.69521 18.6618C4.29104 19.2577 5.09916 19.5924 5.94179 19.5924H12.2961C12.8578 19.5924 13.3966 19.3692 13.7938 18.972C14.191 18.5748 14.4142 18.036 14.4142 17.4743" stroke="white" stroke-width="0.885156" stroke-linecap="round" stroke-linejoin="round"/>
</svg>
