<svg width="22" height="22" viewBox="0 0 22 22" fill="none" xmlns="http://www.w3.org/2000/svg">
<rect opacity="0.01" x="21.2441" y="21.2438" width="21.2438" height="21.2438" transform="rotate(180 21.2441 21.2438)" fill="white"/>
<path d="M2.86839 6.4528L10.4099 10.5511C10.5427 10.6219 10.702 10.6219 10.8348 10.5511L18.3763 6.4528C18.517 6.38333 18.6023 6.23621 18.5926 6.0796C18.5829 5.92299 18.4802 5.78747 18.3321 5.73583L10.7905 2.65548C10.6828 2.61122 10.5619 2.61122 10.4542 2.65548L2.91265 5.73583C2.76448 5.78747 2.66178 5.92299 2.65211 6.0796C2.64244 6.23621 2.7277 6.38333 2.86839 6.4528Z" fill="white"/>
<path d="M18.3324 9.43578L16.7125 8.74536L10.8351 11.9408C10.7023 12.0116 10.543 12.0116 10.4102 11.9408L4.53278 8.74536L2.91294 9.43578C2.77312 9.50918 2.68555 9.65406 2.68555 9.81197C2.68555 9.96989 2.77312 10.1148 2.91294 10.1882L10.4545 14.5254C10.5849 14.6052 10.7489 14.6052 10.8793 14.5254L18.4209 10.1882C18.554 10.0996 18.6261 9.94367 18.6074 9.78482C18.5888 9.62597 18.4824 9.49108 18.3324 9.43578Z" fill="white"/>
<path d="M18.3322 13.3659L16.9514 12.7639L10.8349 16.0921C10.7022 16.1629 10.5428 16.1629 10.4101 16.0921L4.29363 12.7639L2.91279 13.3659C2.76898 13.4404 2.67871 13.5889 2.67871 13.7509C2.67871 13.9129 2.76898 14.0614 2.91279 14.1359L10.4543 18.5617C10.5871 18.6325 10.7464 18.6325 10.8792 18.5617L18.4207 14.1359C18.5579 14.0461 18.6327 13.8865 18.6139 13.7236C18.5952 13.5607 18.4862 13.4222 18.3322 13.3659Z" fill="white"/>
</svg>
