<svg width="20" height="20" viewBox="0 0 20 20" fill="none" xmlns="http://www.w3.org/2000/svg">
<g clip-path="url(#clip0_796_8716)">
<path fill-rule="evenodd" clip-rule="evenodd" d="M2.18798 2.18798C2.22033 2.15571 2.25873 2.13013 2.30097 2.11271C2.34322 2.09528 2.38848 2.08636 2.43418 2.08644H4.52062C4.7973 2.08644 5.06265 1.97653 5.25829 1.78089C5.45393 1.58525 5.56384 1.3199 5.56384 1.04322C5.56384 0.766541 5.45393 0.501194 5.25829 0.305552C5.06265 0.10991 4.7973 0 4.52062 0L2.43418 0C1.7886 0 1.16945 0.256457 0.712955 0.712955C0.256457 1.16945 0 1.7886 0 2.43418L0 4.52062C0 4.7973 0.10991 5.06265 0.305552 5.25829C0.501194 5.45393 0.766541 5.56384 1.04322 5.56384C1.3199 5.56384 1.58525 5.45393 1.78089 5.25829C1.97653 5.06265 2.08644 4.7973 2.08644 4.52062V2.43418C2.08636 2.38848 2.09528 2.34322 2.11271 2.30097C2.13013 2.25873 2.15571 2.22033 2.18798 2.18798ZM19.4734 14.9528C19.4734 14.6761 19.3635 14.4108 19.1679 14.2152C18.9722 14.0195 18.7069 13.9096 18.4302 13.9096C18.1535 13.9096 17.8882 14.0195 17.6926 14.2152C17.4969 14.4108 17.387 14.6761 17.387 14.9528V17.0393C17.387 17.1315 17.3504 17.2199 17.2851 17.2851C17.2199 17.3504 17.1315 17.387 17.0393 17.387H14.9528C14.6761 17.387 14.4108 17.4969 14.2152 17.6926C14.0195 17.8882 13.9096 18.1535 13.9096 18.4302C13.9096 18.7069 14.0195 18.9722 14.2152 19.1679C14.4108 19.3635 14.6761 19.4734 14.9528 19.4734H17.0393C17.6848 19.4734 18.304 19.217 18.7605 18.7605C19.217 18.304 19.4734 17.6848 19.4734 17.0393V14.9528ZM1.04322 13.9096C1.3199 13.9096 1.58525 14.0195 1.78089 14.2152C1.97653 14.4108 2.08644 14.6761 2.08644 14.9528V17.0393C2.08644 17.1315 2.12308 17.2199 2.18829 17.2851C2.2535 17.3504 2.34195 17.387 2.43418 17.387H4.52062C4.7973 17.387 5.06265 17.4969 5.25829 17.6926C5.45393 17.8882 5.56384 18.1535 5.56384 18.4302C5.56384 18.7069 5.45393 18.9722 5.25829 19.1679C5.06265 19.3635 4.7973 19.4734 4.52062 19.4734H2.43418C1.7886 19.4734 1.16945 19.217 0.712955 18.7605C0.256457 18.304 0 17.6848 0 17.0393L0 14.9528C0 14.6761 0.10991 14.4108 0.305552 14.2152C0.501194 14.0195 0.766541 13.9096 1.04322 13.9096ZM14.9528 0C14.6761 0 14.4108 0.10991 14.2152 0.305552C14.0195 0.501194 13.9096 0.766541 13.9096 1.04322C13.9096 1.3199 14.0195 1.58525 14.2152 1.78089C14.4108 1.97653 14.6761 2.08644 14.9528 2.08644H17.0393C17.1315 2.08644 17.2199 2.12308 17.2851 2.18829C17.3504 2.2535 17.387 2.34195 17.387 2.43418V4.52062C17.387 4.7973 17.4969 5.06265 17.6926 5.25829C17.8882 5.45393 18.1535 5.56384 18.4302 5.56384C18.7069 5.56384 18.9722 5.45393 19.1679 5.25829C19.3635 5.06265 19.4734 4.7973 19.4734 4.52062V2.43418C19.4734 1.7886 19.217 1.16945 18.7605 0.712955C18.304 0.256457 17.6848 0 17.0393 0H14.9528ZM9.73672 10.8161C8.48187 10.8154 7.25686 11.1988 6.22623 11.9146C5.19559 12.6305 4.40868 13.6446 3.97119 14.8207C3.8154 15.2366 4.14784 15.6483 4.59156 15.6483H14.8805C15.3242 15.6483 15.6553 15.2366 15.4995 14.8207C15.0621 13.645 14.2757 12.6312 13.2456 11.9154C12.2155 11.1996 10.9911 10.816 9.73672 10.8161ZM12.808 6.20507C12.808 7.02054 12.484 7.8026 11.9074 8.37923C11.3308 8.95585 10.5487 9.27979 9.73324 9.27979C8.91778 9.27979 8.13571 8.95585 7.55909 8.37923C6.98247 7.8026 6.65852 7.02054 6.65852 6.20507C6.65852 5.38961 6.98247 4.60754 7.55909 4.03092C8.13571 3.4543 8.91778 3.13036 9.73324 3.13036C10.5487 3.13036 11.3308 3.4543 11.9074 4.03092C12.484 4.60754 12.808 5.38961 12.808 6.20507Z" fill="white"/>
</g>
<defs>
<clipPath id="clip0_796_8716">
<rect width="19.4734" height="19.4734" fill="white"/>
</clipPath>
</defs>
</svg>
