<svg width="22" height="22" viewBox="0 0 22 22" fill="none" xmlns="http://www.w3.org/2000/svg">
<rect opacity="0.01" width="21.2438" height="21.2438" fill="black"/>
<path fill-rule="evenodd" clip-rule="evenodd" d="M13.4468 1.64019C15.1994 0.456003 17.5463 0.684891 19.0371 2.1854L19.0591 2.19421C20.5596 3.68498 20.7885 6.03191 19.6043 7.78451C18.4202 9.53711 16.1573 10.2004 14.2143 9.36453C14.1254 9.32703 14.0283 9.31337 13.9324 9.32489L12.0474 9.70367H11.9593C11.8392 9.70673 11.723 9.66059 11.6378 9.57594C11.5332 9.47086 11.4885 9.32024 11.5189 9.17514L11.9064 7.31209C11.9229 7.21629 11.909 7.11775 11.8668 7.03021C11.0309 5.08723 11.6942 2.82439 13.4468 1.64019ZM13.7212 5.29928C13.7212 5.54253 13.9184 5.73972 14.1616 5.73972C14.4049 5.73972 14.6021 5.54253 14.6021 5.29928C14.6021 5.05603 14.4049 4.85884 14.1616 4.85884C13.9184 4.85884 13.7212 5.05603 13.7212 5.29928ZM15.9231 5.73972C15.6799 5.73972 15.4827 5.54253 15.4827 5.29928C15.4827 5.05603 15.6799 4.85884 15.9231 4.85884C16.1663 4.85884 16.3635 5.05603 16.3635 5.29928C16.3635 5.54253 16.1663 5.73972 15.9231 5.73972ZM17.2447 5.29928C17.2447 5.54253 17.4419 5.73972 17.6851 5.73972C17.9284 5.73972 18.1256 5.54253 18.1256 5.29928C18.1256 5.05603 17.9284 4.85884 17.6851 4.85884C17.4419 4.85884 17.2447 5.05603 17.2447 5.29928Z" fill="#FAF9F9"/>
<path d="M7.08164 11.507C9.03707 11.507 10.6223 9.92184 10.6223 7.96641C10.6223 6.01097 9.03707 4.42578 7.08164 4.42578C5.12621 4.42578 3.54102 6.01097 3.54102 7.96641C3.54102 9.92184 5.12621 11.507 7.08164 11.507Z" fill="#FAF9F9"/>
<path d="M12.3928 20.3586C12.8816 20.3586 13.2779 19.9623 13.2779 19.4734C13.2779 16.0514 10.5038 13.2773 7.08184 13.2773C3.65983 13.2773 0.885742 16.0514 0.885742 19.4734C0.885742 19.9623 1.28204 20.3586 1.7709 20.3586H12.3928Z" fill="#FAF9F9"/>
</svg>
