<svg width="22" height="22" viewBox="0 0 22 22" fill="none" xmlns="http://www.w3.org/2000/svg">
<path fill-rule="evenodd" clip-rule="evenodd" d="M15.6797 3.54065H8.59841C8.06182 3.54065 7.54721 3.75381 7.16778 4.13324C6.78835 4.51266 6.5752 5.02727 6.5752 5.56386V14.6683C6.5752 15.2049 6.78835 15.7195 7.16778 16.099C7.54721 16.4784 8.06182 16.6915 8.59841 16.6915H15.6797C16.2162 16.6915 16.7309 16.4784 17.1103 16.099C17.4897 15.7195 17.7029 15.2049 17.7029 14.6683V5.56386C17.7029 5.02727 17.4897 4.51266 17.1103 4.13324C16.7309 3.75381 16.2162 3.54065 15.6797 3.54065Z" fill="white" stroke="white" stroke-width="0.885156" stroke-linecap="round" stroke-linejoin="round"/>
<path d="M6.57497 5.56384C6.03838 5.56384 5.52377 5.777 5.14434 6.15643C4.76492 6.53585 4.55176 7.05047 4.55176 7.58706V15.6799C4.55176 16.4848 4.8715 17.2567 5.44064 17.8259C6.00978 18.395 6.78169 18.7147 7.58658 18.7147H13.6562C14.1928 18.7147 14.7074 18.5016 15.0869 18.1221C15.4663 17.7427 15.6794 17.2281 15.6794 16.6915" stroke="white" stroke-width="0.885156" stroke-linecap="round" stroke-linejoin="round"/>
</svg>
