<svg width="22" height="22" viewBox="0 0 22 22" fill="none" xmlns="http://www.w3.org/2000/svg">
<path d="M5.31279 19.4787C4.82582 19.4787 4.40909 19.3055 4.06261 18.959C3.71612 18.6125 3.54258 18.1955 3.54199 17.7079V8.85396C3.54199 8.36699 3.71553 7.95027 4.06261 7.60378C4.40968 7.2573 4.82641 7.08376 5.31279 7.08317H6.19818V5.31237C6.19818 4.08758 6.62996 3.04369 7.49352 2.18073C8.35707 1.31776 9.40096 0.885982 10.6252 0.885392C11.8494 0.884802 12.8936 1.31658 13.7577 2.18073C14.6218 3.04487 15.0533 4.08876 15.0521 5.31237V7.08317H15.9375C16.4245 7.08317 16.8415 7.25671 17.1886 7.60378C17.5357 7.95086 17.7089 8.36758 17.7083 8.85396V17.7079C17.7083 18.1949 17.5351 18.6119 17.1886 18.959C16.8421 19.3061 16.4251 19.4793 15.9375 19.4787H5.31279ZM10.6252 15.0517C11.1121 15.0517 11.5292 14.8785 11.8762 14.532C12.2233 14.1855 12.3965 13.7685 12.396 13.2809C12.3954 12.7934 12.2221 12.3767 11.8762 12.0308C11.5303 11.6849 11.1133 11.5113 10.6252 11.5102C10.137 11.509 9.72029 11.6825 9.37499 12.0308C9.02968 12.379 8.85614 12.7957 8.85437 13.2809C8.8526 13.7661 9.02614 14.1832 9.37499 14.532C9.72383 14.8809 10.1406 15.0541 10.6252 15.0517ZM7.96898 7.08317H13.2814V5.31237C13.2814 4.57454 13.0231 3.94739 12.5066 3.43091C11.9902 2.91443 11.363 2.65619 10.6252 2.65619C9.88733 2.65619 9.26018 2.91443 8.7437 3.43091C8.22722 3.94739 7.96898 4.57454 7.96898 5.31237V7.08317Z" fill="white"/>
</svg>
