<svg width="22" height="22" viewBox="0 0 22 22" fill="none" xmlns="http://www.w3.org/2000/svg">
<g clip-path="url(#clip0_796_8722)">
<path d="M14.1633 15.0477V16.818C14.1633 17.2875 13.9768 17.7378 13.6448 18.0698C13.3128 18.4018 12.8625 18.5883 12.393 18.5883H4.42656C3.95705 18.5883 3.50676 18.4018 3.17476 18.0698C2.84276 17.7378 2.65625 17.2875 2.65625 16.818V4.42578C2.65625 3.95627 2.84276 3.50598 3.17476 3.17398C3.50676 2.84198 3.95705 2.65547 4.42656 2.65547H12.393C12.8625 2.65547 13.3128 2.84198 13.6448 3.17398C13.9768 3.50598 14.1633 3.95627 14.1633 4.42578V6.19609H12.393V4.42578H4.42656V16.818H12.393V15.0477H14.1633ZM16.3762 5.75352L15.1246 7.00513L17.8562 9.73672H8.85234V11.507H17.8562L15.1246 14.2386L16.3762 15.4902L21.2445 10.6219L16.3762 5.75352Z" fill="#150633"/>
</g>
<defs>
<clipPath id="clip0_796_8722">
<rect width="21.2438" height="21.2438" fill="white"/>
</clipPath>
</defs>
</svg>
