<svg width="24" height="24" viewBox="0 0 24 24" fill="none" xmlns="http://www.w3.org/2000/svg">
<path d="M4 5.4C4 5.0287 4.1475 4.6726 4.41005 4.41005C4.6726 4.1475 5.0287 4 5.4 4H11.6C11.9713 4 12.3274 4.1475 12.5899 4.41005C12.8525 4.6726 13 5.0287 13 5.4V8C13 8.26522 13.1054 8.51957 13.2929 8.70711C13.4804 8.89464 13.7348 9 14 9C14.2652 9 14.5196 8.89464 14.7071 8.70711C14.8946 8.51957 15 8.26522 15 8V5.4C15 4.95351 14.9121 4.51138 14.7412 4.09888C14.5703 3.68637 14.3199 3.31156 14.0042 2.99584C13.6884 2.68012 13.3136 2.42968 12.9011 2.25881C12.4886 2.08794 12.0465 2 11.6 2H5.4C4.49826 2 3.63346 2.35821 2.99584 2.99584C2.35821 3.63346 2 4.49826 2 5.4V18.6C2 19.5017 2.35821 20.3665 2.99584 21.0042C3.63346 21.6418 4.49826 22 5.4 22H11.6C12.5017 22 13.3665 21.6418 14.0042 21.0042C14.6418 20.3665 15 19.5017 15 18.6V16C15 15.7348 14.8946 15.4804 14.7071 15.2929C14.5196 15.1054 14.2652 15 14 15C13.7348 15 13.4804 15.1054 13.2929 15.2929C13.1054 15.4804 13 15.7348 13 16V18.6C13 18.9713 12.8525 19.3274 12.5899 19.5899C12.3274 19.8525 11.9713 20 11.6 20H5.4C5.0287 20 4.6726 19.8525 4.41005 19.5899C4.1475 19.3274 4 18.9713 4 18.6V5.4Z" fill="#150633"/>
<path d="M17.2934 8.293C17.481 8.10553 17.7353 8.00021 18.0004 8.00021C18.2656 8.00021 18.5199 8.10553 18.7074 8.293L21.7074 11.293C21.8949 11.4805 22.0002 11.7348 22.0002 12C22.0002 12.2652 21.8949 12.5195 21.7074 12.707L18.7074 15.707C18.5188 15.8892 18.2662 15.99 18.004 15.9877C17.7419 15.9854 17.491 15.8802 17.3056 15.6948C17.1202 15.5094 17.0151 15.2586 17.0128 14.9964C17.0105 14.7342 17.1113 14.4816 17.2934 14.293L18.5864 13H9.91016C9.64494 13 9.39059 12.8946 9.20305 12.7071C9.01551 12.5196 8.91016 12.2652 8.91016 12C8.91016 11.7348 9.01551 11.4804 9.20305 11.2929C9.39059 11.1054 9.64494 11 9.91016 11H18.5864L17.2934 9.707C17.106 9.51947 17.0007 9.26516 17.0007 9C17.0007 8.73484 17.106 8.48053 17.2934 8.293Z" fill="#150633"/>
</svg>
