<svg width="42" height="42" viewBox="0 0 42 42" fill="none" xmlns="http://www.w3.org/2000/svg">
<g clip-path="url(#clip0_706_4892)">
<path d="M33.5783 17.4225C32.3983 11.4357 27.1403 6.94125 20.8237 6.94125C15.8087 6.94125 11.4531 9.78717 9.28392 13.9519C4.06063 14.5072 0 18.9323 0 24.2944C0 30.0383 4.66799 34.7063 10.4119 34.7063H32.9709C37.7604 34.7063 41.6475 30.8192 41.6475 26.0297C41.6475 21.4485 38.0901 17.7349 33.5783 17.4225ZM32.9709 31.2356H10.4119C6.57683 31.2356 3.47062 28.1294 3.47062 24.2944C3.47062 20.737 6.12565 17.7696 9.64834 17.4052L11.5051 17.2143L12.3728 15.5658C14.0213 12.3901 17.249 10.4119 20.8237 10.4119C25.3703 10.4119 29.2921 13.6396 30.1771 18.0993L30.6977 20.7023L33.3527 20.8932C36.0598 21.0667 38.1769 23.34 38.1769 26.0297C38.1769 28.893 35.8342 31.2356 32.9709 31.2356V31.2356ZM17.3531 24.6067L13.7263 20.9799L11.2795 23.4267L17.3531 29.5003L27.7824 19.0711L25.3356 16.6243L17.3531 24.6067Z" fill="white"/>
</g>
<defs>
<clipPath id="clip0_706_4892">
<rect width="41.6475" height="41.6475" fill="white"/>
</clipPath>
</defs>
</svg>
