<svg width="15" height="15" viewBox="0 0 15 15" fill="none" xmlns="http://www.w3.org/2000/svg">
<rect x="14.1625" y="14.1625" width="14.1625" height="14.1625" rx="7.08125" transform="rotate(-180 14.1625 14.1625)" fill="#2ED6A3" fill-opacity="0.15"/>
<g clip-path="url(#clip0_796_8797)">
<path d="M5.32886 6.95921C5.40697 7.0373 5.5129 7.08117 5.62335 7.08117C5.73381 7.08117 5.83974 7.0373 5.91785 6.95921L6.66471 6.21235L6.66471 8.95571C6.66471 9.06618 6.7086 9.17213 6.78672 9.25025C6.86483 9.32837 6.97078 9.37225 7.08126 9.37225C7.19173 9.37225 7.29768 9.32837 7.3758 9.25025C7.45392 9.17213 7.4978 9.06618 7.4978 8.95571L7.4978 6.21235L8.24467 6.95921C8.32323 7.03509 8.42845 7.07708 8.53766 7.07613C8.64688 7.07518 8.75135 7.03137 8.82859 6.95414C8.90582 6.87691 8.94962 6.77243 8.95057 6.66322C8.95152 6.554 8.90954 6.44878 8.83366 6.37022L7.37575 4.91231C7.29764 4.83422 7.19171 4.79036 7.08126 4.79036C6.97081 4.79036 6.86488 4.83422 6.78676 4.91231L5.32886 6.37022C5.25077 6.44833 5.2069 6.55426 5.2069 6.66472C5.2069 6.77517 5.25077 6.8811 5.32886 6.95921V6.95921Z" fill="#00A389"/>
</g>
<defs>
<clipPath id="clip0_796_8797">
<rect width="4.99853" height="4.99853" fill="white" transform="translate(9.58047 9.58051) rotate(-180)"/>
</clipPath>
</defs>
</svg>
