<svg width="154" height="154" viewBox="0 0 154 154" fill="none" xmlns="http://www.w3.org/2000/svg">
<g clip-path="url(#clip0_785_6312)">
<path d="M64.1059 102.569H89.7482C93.274 102.569 96.1587 99.6845 96.1587 96.1587V64.1058H106.352C112.057 64.1058 114.942 57.1824 110.903 53.1437L81.4785 23.7191C78.9784 21.219 74.9397 21.219 72.4396 23.7191L43.0151 53.1437C38.9764 57.1824 41.7971 64.1058 47.5025 64.1058H57.6953V96.1587C57.6953 99.6845 60.58 102.569 64.1059 102.569ZM38.4636 115.39H115.39C118.916 115.39 121.801 118.275 121.801 121.801C121.801 125.327 118.916 128.212 115.39 128.212H38.4636C34.9377 128.212 32.053 125.327 32.053 121.801C32.053 118.275 34.9377 115.39 38.4636 115.39Z" fill="white"/>
</g>
<defs>
<clipPath id="clip0_785_6312">
<rect width="153.854" height="153.854" fill="white"/>
</clipPath>
</defs>
</svg>
